<mxfile host="app.diagrams.net" modified="2023-06-28T21:59:02.759Z" agent="Mozilla/5.0 (X11; Ubuntu; Linux x86_64; rv:109.0) Gecko/20100101 Firefox/111.0" etag="PDlOldCZ8-IbUftVeZCu" version="21.5.2" type="device">
  <diagram name="Pagina-1" id="2EgIE4DmpU0ribxin4y5">
    <mxGraphModel dx="942" dy="498" grid="1" gridSize="10" guides="1" tooltips="1" connect="1" arrows="1" fold="1" page="1" pageScale="1" pageWidth="827" pageHeight="1169" math="0" shadow="0">
      <root>
        <mxCell id="0" />
        <mxCell id="1" parent="0" />
        <mxCell id="cvRy3syvQBvX0eV_d_cI-11" style="edgeStyle=orthogonalEdgeStyle;rounded=0;orthogonalLoop=1;jettySize=auto;html=1;entryX=0;entryY=0.5;entryDx=0;entryDy=0;entryPerimeter=0;" parent="1" source="cvRy3syvQBvX0eV_d_cI-2" target="cvRy3syvQBvX0eV_d_cI-10" edge="1">
          <mxGeometry relative="1" as="geometry">
            <Array as="points">
              <mxPoint x="440" y="200" />
              <mxPoint x="440" y="155" />
            </Array>
          </mxGeometry>
        </mxCell>
        <mxCell id="cvRy3syvQBvX0eV_d_cI-19" style="edgeStyle=orthogonalEdgeStyle;rounded=0;orthogonalLoop=1;jettySize=auto;html=1;" parent="1" source="cvRy3syvQBvX0eV_d_cI-2" target="cvRy3syvQBvX0eV_d_cI-17" edge="1">
          <mxGeometry relative="1" as="geometry">
            <mxPoint x="390" y="250" as="targetPoint" />
            <Array as="points">
              <mxPoint x="440" y="200" />
              <mxPoint x="440" y="239" />
            </Array>
          </mxGeometry>
        </mxCell>
        <mxCell id="cvRy3syvQBvX0eV_d_cI-26" style="edgeStyle=orthogonalEdgeStyle;rounded=0;orthogonalLoop=1;jettySize=auto;html=1;entryX=0.5;entryY=0;entryDx=0;entryDy=0;entryPerimeter=0;endArrow=classicThin;endFill=1;" parent="1" source="cvRy3syvQBvX0eV_d_cI-2" target="cvRy3syvQBvX0eV_d_cI-25" edge="1">
          <mxGeometry relative="1" as="geometry">
            <Array as="points">
              <mxPoint x="290" y="279" />
              <mxPoint x="253" y="279" />
            </Array>
          </mxGeometry>
        </mxCell>
        <mxCell id="cvRy3syvQBvX0eV_d_cI-31" style="edgeStyle=orthogonalEdgeStyle;rounded=0;orthogonalLoop=1;jettySize=auto;html=1;exitX=0.75;exitY=1;exitDx=0;exitDy=0;endArrow=classicThin;endFill=1;" parent="1" source="cvRy3syvQBvX0eV_d_cI-2" target="cvRy3syvQBvX0eV_d_cI-29" edge="1">
          <mxGeometry relative="1" as="geometry" />
        </mxCell>
        <mxCell id="cvRy3syvQBvX0eV_d_cI-2" value="&lt;b&gt;ATMega328P&lt;br&gt;(Arduino Board)&lt;br&gt;&lt;/b&gt;" style="rounded=1;whiteSpace=wrap;html=1;" parent="1" vertex="1">
          <mxGeometry x="250" y="170" width="120" height="60" as="geometry" />
        </mxCell>
        <mxCell id="cvRy3syvQBvX0eV_d_cI-9" style="edgeStyle=orthogonalEdgeStyle;rounded=0;orthogonalLoop=1;jettySize=auto;html=1;entryX=0;entryY=0.5;entryDx=0;entryDy=0;" parent="1" source="cvRy3syvQBvX0eV_d_cI-4" target="cvRy3syvQBvX0eV_d_cI-2" edge="1">
          <mxGeometry relative="1" as="geometry">
            <Array as="points">
              <mxPoint x="160" y="140" />
              <mxPoint x="160" y="200" />
            </Array>
          </mxGeometry>
        </mxCell>
        <mxCell id="cvRy3syvQBvX0eV_d_cI-7" value="---" style="group" parent="1" vertex="1" connectable="0">
          <mxGeometry x="20" y="220" width="180" height="108" as="geometry" />
        </mxCell>
        <mxCell id="cvRy3syvQBvX0eV_d_cI-5" value="" style="sketch=0;outlineConnect=0;fontColor=#232F3E;gradientColor=none;fillColor=#3F8624;strokeColor=none;dashed=0;verticalLabelPosition=bottom;verticalAlign=top;align=center;html=1;fontSize=12;fontStyle=0;aspect=fixed;pointerEvents=1;shape=mxgraph.aws4.iot_thing_temperature_sensor;" parent="cvRy3syvQBvX0eV_d_cI-7" vertex="1">
          <mxGeometry x="42" width="78" height="78" as="geometry" />
        </mxCell>
        <mxCell id="cvRy3syvQBvX0eV_d_cI-6" value="&amp;nbsp;Temperature sensor&lt;br&gt;" style="text;html=1;align=center;verticalAlign=middle;resizable=0;points=[];autosize=1;strokeColor=none;fillColor=none;" parent="cvRy3syvQBvX0eV_d_cI-7" vertex="1">
          <mxGeometry x="16" y="78" width="130" height="30" as="geometry" />
        </mxCell>
        <mxCell id="cvRy3syvQBvX0eV_d_cI-8" style="edgeStyle=orthogonalEdgeStyle;rounded=0;orthogonalLoop=1;jettySize=auto;html=1;entryX=0;entryY=0.5;entryDx=0;entryDy=0;" parent="1" source="cvRy3syvQBvX0eV_d_cI-5" target="cvRy3syvQBvX0eV_d_cI-2" edge="1">
          <mxGeometry relative="1" as="geometry">
            <Array as="points">
              <mxPoint x="160" y="259" />
              <mxPoint x="160" y="200" />
            </Array>
          </mxGeometry>
        </mxCell>
        <mxCell id="cvRy3syvQBvX0eV_d_cI-14" value="" style="group" parent="1" vertex="1" connectable="0">
          <mxGeometry x="480" y="130" width="50" height="73" as="geometry" />
        </mxCell>
        <mxCell id="cvRy3syvQBvX0eV_d_cI-10" value="" style="shape=mxgraph.pid.compressors_-_iso.blower,_fan;html=1;pointerEvents=1;align=center;verticalLabelPosition=bottom;verticalAlign=top;dashed=0;" parent="cvRy3syvQBvX0eV_d_cI-14" vertex="1">
          <mxGeometry width="50" height="50" as="geometry" />
        </mxCell>
        <mxCell id="cvRy3syvQBvX0eV_d_cI-13" value="Fan" style="text;html=1;align=center;verticalAlign=middle;resizable=0;points=[];autosize=1;strokeColor=none;fillColor=none;" parent="cvRy3syvQBvX0eV_d_cI-14" vertex="1">
          <mxGeometry x="5" y="43" width="40" height="30" as="geometry" />
        </mxCell>
        <mxCell id="cvRy3syvQBvX0eV_d_cI-16" value="" style="group" parent="1" vertex="1" connectable="0">
          <mxGeometry x="40" y="93" width="120" height="110" as="geometry" />
        </mxCell>
        <mxCell id="cvRy3syvQBvX0eV_d_cI-4" value="&lt;i&gt;&lt;font style=&quot;font-size: 14px;&quot; face=&quot;Bakbak One&quot; data-font-src=&quot;https://fonts.googleapis.com/css?family=Bakbak+One&quot;&gt;MQ135&lt;/font&gt;&lt;/i&gt;" style="ellipse;whiteSpace=wrap;html=1;aspect=fixed;fillColor=#fff2cc;strokeColor=#d6b656;" parent="cvRy3syvQBvX0eV_d_cI-16" vertex="1">
          <mxGeometry x="20" width="80" height="80" as="geometry" />
        </mxCell>
        <mxCell id="cvRy3syvQBvX0eV_d_cI-15" value="Air quality sensor" style="text;html=1;align=center;verticalAlign=middle;resizable=0;points=[];autosize=1;strokeColor=none;fillColor=none;" parent="cvRy3syvQBvX0eV_d_cI-16" vertex="1">
          <mxGeometry y="80" width="120" height="30" as="geometry" />
        </mxCell>
        <mxCell id="cvRy3syvQBvX0eV_d_cI-17" value="" style="shadow=0;dashed=0;html=1;strokeColor=none;fillColor=#4495D1;labelPosition=center;verticalLabelPosition=bottom;verticalAlign=top;align=center;outlineConnect=0;shape=mxgraph.veeam.2d.alarm;" parent="1" vertex="1">
          <mxGeometry x="480" y="220" width="52.8" height="37.6" as="geometry" />
        </mxCell>
        <mxCell id="cvRy3syvQBvX0eV_d_cI-21" style="edgeStyle=orthogonalEdgeStyle;rounded=0;orthogonalLoop=1;jettySize=auto;html=1;entryX=0.75;entryY=0;entryDx=0;entryDy=0;endArrow=oval;endFill=1;" parent="1" source="cvRy3syvQBvX0eV_d_cI-20" target="cvRy3syvQBvX0eV_d_cI-2" edge="1">
          <mxGeometry relative="1" as="geometry" />
        </mxCell>
        <mxCell id="cvRy3syvQBvX0eV_d_cI-20" value="FreeRTOS" style="sketch=0;outlineConnect=0;fontColor=#232F3E;gradientColor=none;strokeColor=#ffffff;fillColor=#232F3E;dashed=0;verticalLabelPosition=middle;verticalAlign=bottom;align=center;html=1;whiteSpace=wrap;fontSize=10;fontStyle=1;spacing=3;shape=mxgraph.aws4.productIcon;prIcon=mxgraph.aws4.freertos;" parent="1" vertex="1">
          <mxGeometry x="370" y="67.75" width="43.64" height="60" as="geometry" />
        </mxCell>
        <mxCell id="cvRy3syvQBvX0eV_d_cI-23" value="ADC" style="text;html=1;align=center;verticalAlign=middle;resizable=0;points=[];autosize=1;strokeColor=none;fillColor=none;" parent="1" vertex="1">
          <mxGeometry x="170" y="177" width="50" height="30" as="geometry" />
        </mxCell>
        <mxCell id="cvRy3syvQBvX0eV_d_cI-24" value="PWM" style="text;html=1;align=center;verticalAlign=middle;resizable=0;points=[];autosize=1;strokeColor=none;fillColor=none;" parent="1" vertex="1">
          <mxGeometry x="370" y="177" width="50" height="30" as="geometry" />
        </mxCell>
        <mxCell id="cvRy3syvQBvX0eV_d_cI-25" value="" style="sketch=0;pointerEvents=1;shadow=0;dashed=0;html=1;strokeColor=none;labelPosition=center;verticalLabelPosition=bottom;verticalAlign=top;align=center;fillColor=#505050;shape=mxgraph.mscae.intune.intune_wifi_profiles" parent="1" vertex="1">
          <mxGeometry x="231.68" y="328" width="43" height="50" as="geometry" />
        </mxCell>
        <mxCell id="cvRy3syvQBvX0eV_d_cI-27" value="UART" style="text;html=1;align=center;verticalAlign=middle;resizable=0;points=[];autosize=1;strokeColor=none;fillColor=none;" parent="1" vertex="1">
          <mxGeometry x="240" y="240" width="60" height="30" as="geometry" />
        </mxCell>
        <mxCell id="cvRy3syvQBvX0eV_d_cI-28" value="ESP8266" style="text;html=1;align=center;verticalAlign=middle;resizable=0;points=[];autosize=1;strokeColor=none;fillColor=none;" parent="1" vertex="1">
          <mxGeometry x="218.18" y="378" width="70" height="30" as="geometry" />
        </mxCell>
        <mxCell id="cvRy3syvQBvX0eV_d_cI-29" value="" style="sketch=0;pointerEvents=1;shadow=0;dashed=0;html=1;strokeColor=none;fillColor=#505050;labelPosition=center;verticalLabelPosition=bottom;verticalAlign=top;outlineConnect=0;align=center;shape=mxgraph.office.devices.lcd_monitor;" parent="1" vertex="1">
          <mxGeometry x="350" y="328" width="58" height="48" as="geometry" />
        </mxCell>
        <mxCell id="cvRy3syvQBvX0eV_d_cI-32" value="I2C" style="text;html=1;align=center;verticalAlign=middle;resizable=0;points=[];autosize=1;strokeColor=none;fillColor=none;" parent="1" vertex="1">
          <mxGeometry x="339" y="240" width="40" height="30" as="geometry" />
        </mxCell>
        <mxCell id="cvRy3syvQBvX0eV_d_cI-33" value="LCD 1602 Module" style="text;html=1;align=center;verticalAlign=middle;resizable=0;points=[];autosize=1;strokeColor=none;fillColor=none;" parent="1" vertex="1">
          <mxGeometry x="319" y="376" width="120" height="30" as="geometry" />
        </mxCell>
        <mxCell id="cvRy3syvQBvX0eV_d_cI-34" value="Buzzer" style="text;html=1;align=center;verticalAlign=middle;resizable=0;points=[];autosize=1;strokeColor=none;fillColor=none;" parent="1" vertex="1">
          <mxGeometry x="475" y="259" width="60" height="30" as="geometry" />
        </mxCell>
        <mxCell id="cvRy3syvQBvX0eV_d_cI-39" style="edgeStyle=orthogonalEdgeStyle;rounded=0;orthogonalLoop=1;jettySize=auto;html=1;entryX=0.25;entryY=0;entryDx=0;entryDy=0;endArrow=classicThin;endFill=1;" parent="1" source="cvRy3syvQBvX0eV_d_cI-36" target="cvRy3syvQBvX0eV_d_cI-2" edge="1">
          <mxGeometry relative="1" as="geometry" />
        </mxCell>
        <mxCell id="cvRy3syvQBvX0eV_d_cI-36" value="" style="sketch=0;pointerEvents=1;shadow=0;dashed=0;html=1;strokeColor=none;fillColor=#434445;aspect=fixed;labelPosition=center;verticalLabelPosition=bottom;verticalAlign=top;align=center;outlineConnect=0;shape=mxgraph.vvd.keyboard;" parent="1" vertex="1">
          <mxGeometry x="200" y="80" width="50" height="35.5" as="geometry" />
        </mxCell>
        <mxCell id="cvRy3syvQBvX0eV_d_cI-38" value="Keyboard Membrane&lt;br&gt;Switch module" style="text;html=1;align=center;verticalAlign=middle;resizable=0;points=[];autosize=1;strokeColor=none;fillColor=none;" parent="1" vertex="1">
          <mxGeometry x="173.18" y="40" width="140" height="40" as="geometry" />
        </mxCell>
        <mxCell id="cvRy3syvQBvX0eV_d_cI-40" value="GPIO" style="text;html=1;align=center;verticalAlign=middle;resizable=0;points=[];autosize=1;strokeColor=none;fillColor=none;" parent="1" vertex="1">
          <mxGeometry x="228.18" y="115.5" width="50" height="30" as="geometry" />
        </mxCell>
      </root>
    </mxGraphModel>
  </diagram>
</mxfile>
